<?xml version="1.0" encoding="UTF-8"?>
<svg xmlns="http://www.w3.org/2000/svg" xmlns:xlink="http://www.w3.org/1999/xlink" width="48px" height="48px" viewBox="0 0 48 48" version="1.1">
<g id="surface142026">
<path style=" stroke:none;fill-rule:nonzero;fill:rgb(100%,100%,100%);fill-opacity:1;" d="M 21.882812 6.136719 L 17.566406 5.160156 C 14.046875 4.367188 10.550781 6.574219 9.753906 10.097656 L 8.769531 14.445312 C 11.601562 9.949219 16.355469 6.789062 21.882812 6.136719 Z M 6.136719 26.117188 L 5.160156 30.433594 C 4.367188 33.953125 6.574219 37.449219 10.097656 38.246094 L 14.445312 39.230469 C 9.949219 36.394531 6.789062 31.644531 6.136719 26.117188 Z M 37.902344 9.753906 L 33.554688 8.769531 C 38.050781 11.601562 41.210938 16.355469 41.863281 21.878906 L 42.839844 17.566406 C 43.632812 14.046875 41.425781 10.550781 37.902344 9.753906 Z M 26.117188 41.863281 L 30.433594 42.839844 C 33.953125 43.632812 37.449219 41.425781 38.246094 37.902344 L 39.230469 33.554688 C 36.398438 38.050781 31.644531 41.210938 26.117188 41.863281 Z M 26.117188 41.863281 "/>
<path style=" stroke:none;fill-rule:nonzero;fill:rgb(100%,100%,100%);fill-opacity:1;" d="M 24 8 C 15.164062 8 8 15.164062 8 24 C 8 32.835938 15.164062 40 24 40 C 32.835938 40 40 32.835938 40 24 C 40 15.164062 32.835938 8 24 8 Z M 20 13 C 22.210938 13 24 14.789062 24 17 C 24 19.210938 22.210938 21 20 21 C 17.789062 21 16 19.210938 16 17 C 16 14.789062 17.789062 13 20 13 Z M 17 32 C 14.789062 32 13 30.210938 13 28 C 13 25.789062 14.789062 24 17 24 C 19.210938 24 21 25.789062 21 28 C 21 30.210938 19.210938 32 17 32 Z M 22 24 C 22 22.894531 22.894531 22 24 22 C 25.105469 22 26 22.894531 26 24 C 26 25.105469 25.105469 26 24 26 C 22.894531 26 22 25.105469 22 24 Z M 28 35 C 25.789062 35 24 33.210938 24 31 C 24 28.789062 25.789062 27 28 27 C 30.210938 27 32 28.789062 32 31 C 32 33.210938 30.210938 35 28 35 Z M 31 24 C 28.789062 24 27 22.210938 27 20 C 27 17.789062 28.789062 16 31 16 C 33.210938 16 35 17.789062 35 20 C 35 22.210938 33.210938 24 31 24 Z M 31 24 "/>
</g>
</svg>
